<mxfile host="app.diagrams.net" modified="2024-05-10T21:08:21.452Z" agent="Mozilla/5.0 (Macintosh; Intel Mac OS X 10_15_7) AppleWebKit/605.1.15 (KHTML, like Gecko) Version/17.4.1 Safari/605.1.15" etag="lgifHmEmg9smZ4KljBhK" version="24.3.1" type="github">
  <diagram name="Design Rate Limiter" id="I2kwwi_oQaPWxSe5DMTd">
    <mxGraphModel dx="1434" dy="827" grid="1" gridSize="10" guides="1" tooltips="1" connect="1" arrows="1" fold="1" page="1" pageScale="1" pageWidth="850" pageHeight="1100" math="0" shadow="0">
      <root>
        <mxCell id="0" />
        <mxCell id="1" parent="0" />
        <mxCell id="1sDOYhtzCdEPF9Sd6pJG-1" value="" style="sketch=0;outlineConnect=0;fontColor=#232F3E;gradientColor=none;fillColor=#232F3D;strokeColor=none;dashed=0;verticalLabelPosition=bottom;verticalAlign=top;align=center;html=1;fontSize=12;fontStyle=0;aspect=fixed;pointerEvents=1;shape=mxgraph.aws4.client;" vertex="1" parent="1">
          <mxGeometry x="120" y="140" width="78" height="76" as="geometry" />
        </mxCell>
        <mxCell id="1sDOYhtzCdEPF9Sd6pJG-2" value="Mobile client" style="sketch=0;outlineConnect=0;fontColor=#232F3E;gradientColor=none;strokeColor=#232F3E;fillColor=#ffffff;dashed=0;verticalLabelPosition=bottom;verticalAlign=top;align=center;html=1;fontSize=12;fontStyle=0;aspect=fixed;shape=mxgraph.aws4.resourceIcon;resIcon=mxgraph.aws4.mobile_client;" vertex="1" parent="1">
          <mxGeometry x="40" y="140" width="60" height="60" as="geometry" />
        </mxCell>
        <mxCell id="1sDOYhtzCdEPF9Sd6pJG-4" value="" style="rounded=0;whiteSpace=wrap;html=1;fillColor=none;" vertex="1" parent="1">
          <mxGeometry x="30" y="109.5" width="180" height="137" as="geometry" />
        </mxCell>
        <mxCell id="1sDOYhtzCdEPF9Sd6pJG-8" style="edgeStyle=orthogonalEdgeStyle;rounded=0;orthogonalLoop=1;jettySize=auto;html=1;exitX=1;exitY=0.5;exitDx=0;exitDy=0;" edge="1" parent="1" source="1sDOYhtzCdEPF9Sd6pJG-5" target="1sDOYhtzCdEPF9Sd6pJG-7">
          <mxGeometry relative="1" as="geometry" />
        </mxCell>
        <mxCell id="1sDOYhtzCdEPF9Sd6pJG-23" value="" style="edgeStyle=orthogonalEdgeStyle;rounded=0;orthogonalLoop=1;jettySize=auto;html=1;" edge="1" parent="1" source="1sDOYhtzCdEPF9Sd6pJG-5" target="1sDOYhtzCdEPF9Sd6pJG-22">
          <mxGeometry relative="1" as="geometry" />
        </mxCell>
        <mxCell id="1sDOYhtzCdEPF9Sd6pJG-5" value="Rate Limiter&amp;nbsp;&lt;div&gt;Middleware&lt;/div&gt;" style="shape=hexagon;perimeter=hexagonPerimeter2;whiteSpace=wrap;html=1;fixedSize=1;" vertex="1" parent="1">
          <mxGeometry x="290" y="130" width="120" height="80" as="geometry" />
        </mxCell>
        <mxCell id="1sDOYhtzCdEPF9Sd6pJG-6" style="edgeStyle=orthogonalEdgeStyle;rounded=0;orthogonalLoop=1;jettySize=auto;html=1;exitX=1;exitY=0.5;exitDx=0;exitDy=0;entryX=0;entryY=0.6;entryDx=0;entryDy=0;entryPerimeter=0;" edge="1" parent="1" source="1sDOYhtzCdEPF9Sd6pJG-4" target="1sDOYhtzCdEPF9Sd6pJG-5">
          <mxGeometry relative="1" as="geometry" />
        </mxCell>
        <mxCell id="1sDOYhtzCdEPF9Sd6pJG-7" value="" style="outlineConnect=0;dashed=0;verticalLabelPosition=bottom;verticalAlign=top;align=center;html=1;shape=mxgraph.aws3.cache_node;fillColor=#2E73B8;gradientColor=none;" vertex="1" parent="1">
          <mxGeometry x="460" y="100" width="60" height="63" as="geometry" />
        </mxCell>
        <mxCell id="1sDOYhtzCdEPF9Sd6pJG-43" value="" style="edgeStyle=orthogonalEdgeStyle;rounded=0;orthogonalLoop=1;jettySize=auto;html=1;" edge="1" parent="1" source="1sDOYhtzCdEPF9Sd6pJG-9" target="1sDOYhtzCdEPF9Sd6pJG-11">
          <mxGeometry relative="1" as="geometry" />
        </mxCell>
        <mxCell id="1sDOYhtzCdEPF9Sd6pJG-9" value="Rules" style="sketch=0;outlineConnect=0;fontColor=#232F3E;gradientColor=none;strokeColor=#232F3E;fillColor=#ffffff;dashed=0;verticalLabelPosition=bottom;verticalAlign=top;align=center;html=1;fontSize=12;fontStyle=0;aspect=fixed;shape=mxgraph.aws4.resourceIcon;resIcon=mxgraph.aws4.rule_2;" vertex="1" parent="1">
          <mxGeometry x="595" y="10" width="60" height="60" as="geometry" />
        </mxCell>
        <mxCell id="1sDOYhtzCdEPF9Sd6pJG-11" value="" style="image;aspect=fixed;html=1;points=[];align=center;fontSize=12;image=img/lib/azure2/other/SCVMM_Management_Servers.svg;" vertex="1" parent="1">
          <mxGeometry x="600" y="150" width="60.13" height="59.88" as="geometry" />
        </mxCell>
        <mxCell id="1sDOYhtzCdEPF9Sd6pJG-13" style="edgeStyle=orthogonalEdgeStyle;rounded=0;orthogonalLoop=1;jettySize=auto;html=1;entryX=1;entryY=0.5;entryDx=0;entryDy=0;entryPerimeter=0;" edge="1" parent="1" source="1sDOYhtzCdEPF9Sd6pJG-11" target="1sDOYhtzCdEPF9Sd6pJG-7">
          <mxGeometry relative="1" as="geometry" />
        </mxCell>
        <mxCell id="1sDOYhtzCdEPF9Sd6pJG-14" value="Workers&lt;div&gt;&lt;br&gt;&lt;/div&gt;" style="text;html=1;align=center;verticalAlign=middle;resizable=0;points=[];autosize=1;strokeColor=none;fillColor=none;" vertex="1" parent="1">
          <mxGeometry x="625" y="203" width="70" height="40" as="geometry" />
        </mxCell>
        <mxCell id="1sDOYhtzCdEPF9Sd6pJG-15" value="" style="image;sketch=0;aspect=fixed;html=1;points=[];align=center;fontSize=12;image=img/lib/mscae/Cache_Redis_Product.svg;" vertex="1" parent="1">
          <mxGeometry x="490" y="358" width="50" height="42" as="geometry" />
        </mxCell>
        <mxCell id="1sDOYhtzCdEPF9Sd6pJG-20" value="Reddis Cache&lt;div&gt;&lt;br&gt;&lt;/div&gt;" style="text;html=1;align=center;verticalAlign=middle;resizable=0;points=[];autosize=1;strokeColor=none;fillColor=none;" vertex="1" parent="1">
          <mxGeometry x="470" y="405" width="100" height="40" as="geometry" />
        </mxCell>
        <mxCell id="1sDOYhtzCdEPF9Sd6pJG-21" value="" style="endArrow=classic;startArrow=classic;html=1;rounded=0;exitX=0.625;exitY=1;exitDx=0;exitDy=0;entryX=0.04;entryY=0.095;entryDx=0;entryDy=0;entryPerimeter=0;" edge="1" parent="1" source="1sDOYhtzCdEPF9Sd6pJG-5" target="1sDOYhtzCdEPF9Sd6pJG-15">
          <mxGeometry width="50" height="50" relative="1" as="geometry">
            <mxPoint x="400" y="450" as="sourcePoint" />
            <mxPoint x="450" y="400" as="targetPoint" />
          </mxGeometry>
        </mxCell>
        <mxCell id="1sDOYhtzCdEPF9Sd6pJG-24" style="edgeStyle=orthogonalEdgeStyle;rounded=0;orthogonalLoop=1;jettySize=auto;html=1;entryX=0.5;entryY=1;entryDx=0;entryDy=0;" edge="1" parent="1" source="1sDOYhtzCdEPF9Sd6pJG-22" target="1sDOYhtzCdEPF9Sd6pJG-4">
          <mxGeometry relative="1" as="geometry" />
        </mxCell>
        <mxCell id="1sDOYhtzCdEPF9Sd6pJG-30" style="edgeStyle=orthogonalEdgeStyle;rounded=0;orthogonalLoop=1;jettySize=auto;html=1;exitX=0.5;exitY=1;exitDx=0;exitDy=0;" edge="1" parent="1" source="1sDOYhtzCdEPF9Sd6pJG-22" target="1sDOYhtzCdEPF9Sd6pJG-29">
          <mxGeometry relative="1" as="geometry" />
        </mxCell>
        <mxCell id="1sDOYhtzCdEPF9Sd6pJG-33" style="edgeStyle=orthogonalEdgeStyle;rounded=0;orthogonalLoop=1;jettySize=auto;html=1;exitX=0.5;exitY=1;exitDx=0;exitDy=0;" edge="1" parent="1" source="1sDOYhtzCdEPF9Sd6pJG-22">
          <mxGeometry relative="1" as="geometry">
            <mxPoint x="400" y="460" as="targetPoint" />
          </mxGeometry>
        </mxCell>
        <mxCell id="1sDOYhtzCdEPF9Sd6pJG-22" value="Request Limit&amp;nbsp;&lt;div&gt;Exceeded?&amp;nbsp;&lt;/div&gt;" style="rhombus;whiteSpace=wrap;html=1;" vertex="1" parent="1">
          <mxGeometry x="270" y="290" width="120" height="80" as="geometry" />
        </mxCell>
        <mxCell id="1sDOYhtzCdEPF9Sd6pJG-25" value="429 : Too many requests" style="text;html=1;align=center;verticalAlign=middle;resizable=0;points=[];autosize=1;strokeColor=none;fillColor=none;" vertex="1" parent="1">
          <mxGeometry x="120" y="300" width="150" height="30" as="geometry" />
        </mxCell>
        <mxCell id="1sDOYhtzCdEPF9Sd6pJG-28" value="YES" style="text;html=1;align=center;verticalAlign=middle;resizable=0;points=[];autosize=1;strokeColor=none;fillColor=none;" vertex="1" parent="1">
          <mxGeometry x="165" y="328" width="50" height="30" as="geometry" />
        </mxCell>
        <mxCell id="1sDOYhtzCdEPF9Sd6pJG-29" value="" style="sketch=0;aspect=fixed;pointerEvents=1;shadow=0;dashed=0;html=1;strokeColor=none;labelPosition=center;verticalLabelPosition=bottom;verticalAlign=top;align=center;fillColor=#00188D;shape=mxgraph.azure.queue_generic" vertex="1" parent="1">
          <mxGeometry x="210" y="460" width="100" height="30" as="geometry" />
        </mxCell>
        <mxCell id="1sDOYhtzCdEPF9Sd6pJG-31" value="YES" style="text;html=1;align=center;verticalAlign=middle;resizable=0;points=[];autosize=1;strokeColor=none;fillColor=none;" vertex="1" parent="1">
          <mxGeometry x="270" y="390" width="50" height="30" as="geometry" />
        </mxCell>
        <mxCell id="1sDOYhtzCdEPF9Sd6pJG-32" value="Option 1" style="text;html=1;align=center;verticalAlign=middle;resizable=0;points=[];autosize=1;strokeColor=none;fillColor=none;" vertex="1" parent="1">
          <mxGeometry x="200" y="415" width="70" height="30" as="geometry" />
        </mxCell>
        <mxCell id="1sDOYhtzCdEPF9Sd6pJG-34" value="Request Dropped" style="text;html=1;align=center;verticalAlign=middle;resizable=0;points=[];autosize=1;strokeColor=none;fillColor=none;" vertex="1" parent="1">
          <mxGeometry x="350" y="460" width="120" height="30" as="geometry" />
        </mxCell>
        <mxCell id="1sDOYhtzCdEPF9Sd6pJG-36" value="" style="endArrow=classic;html=1;rounded=0;exitX=1;exitY=0.75;exitDx=0;exitDy=0;" edge="1" parent="1" source="1sDOYhtzCdEPF9Sd6pJG-5">
          <mxGeometry width="50" height="50" relative="1" as="geometry">
            <mxPoint x="590" y="378" as="sourcePoint" />
            <mxPoint x="560" y="290" as="targetPoint" />
          </mxGeometry>
        </mxCell>
        <mxCell id="1sDOYhtzCdEPF9Sd6pJG-38" value="" style="image;html=1;image=img/lib/clip_art/computers/Server_128x128.png" vertex="1" parent="1">
          <mxGeometry x="560" y="260" width="80" height="80" as="geometry" />
        </mxCell>
        <mxCell id="1sDOYhtzCdEPF9Sd6pJG-39" value="API Servers&lt;div&gt;&lt;br&gt;&lt;/div&gt;" style="text;html=1;align=center;verticalAlign=middle;resizable=0;points=[];autosize=1;strokeColor=none;fillColor=none;" vertex="1" parent="1">
          <mxGeometry x="580" y="323" width="90" height="40" as="geometry" />
        </mxCell>
        <mxCell id="1sDOYhtzCdEPF9Sd6pJG-40" value="Response&lt;div&gt;&lt;br&gt;&lt;/div&gt;" style="text;html=1;align=center;verticalAlign=middle;resizable=0;points=[];autosize=1;strokeColor=none;fillColor=none;" vertex="1" parent="1">
          <mxGeometry x="475" y="223" width="80" height="40" as="geometry" />
        </mxCell>
      </root>
    </mxGraphModel>
  </diagram>
</mxfile>
